<?xml version="1.0" ?>
<svg style="enable-background:new 0 0 48 48;" version="1.1" viewBox="0 0 48 48" xml:space="preserve" xmlns="http://www.w3.org/2000/svg" xmlns:xlink="http://www.w3.org/1999/xlink"><g id="Icons"><g><g><path d="M38.5197,34.83927H9.48019c-1.21965,0-2.20851-0.98886-2.20851-2.20852v-17.2614     c0-1.21987,0.98886-2.20862,2.20862-2.20862h29.0394c1.21988,0,2.20862,0.98875,2.20862,2.20862v17.26129     C40.72832,33.85041,39.73958,34.83927,38.5197,34.83927z" style="fill:#F9F9F9;"/></g><g><path d="     M38.5197,34.83927H9.48019c-1.21965,0-2.20851-0.98886-2.20851-2.20852v-17.2614c0-1.21987,0.98886-2.20862,2.20862-2.20862     h29.0394c1.21988,0,2.20862,0.98875,2.20862,2.20862v17.26129C40.72832,33.85041,39.73958,34.83927,38.5197,34.83927z" style="fill:none;stroke:#303030;stroke-width:0.8;stroke-linecap:round;stroke-linejoin:round;stroke-miterlimit:10;"/></g><path d="M15.65348,20.91787c0,0.06055,0,0.10904,0,0.15774    c-0.00011,1.19356,0.00348,2.38734-0.00196,3.58102c-0.00196,0.46323-0.14937,0.87329-0.51334,1.18215    c-0.30886,0.262-0.67794,0.36876-1.07431,0.38191c-0.89449,0.03011-1.73419-0.2009-2.54715-0.55161    c-0.08621-0.03729-0.16927-0.08306-0.25765-0.11448c-0.07795-0.02772-0.09447-0.07545-0.09447-0.15285    c0.00196-2.59455-0.00043-5.18889,0.00239-7.78344c0.00164-1.55797,1.0231-2.83307,2.54237-3.1666    c0.24754-0.05425,0.50737-0.07273,0.76165-0.07316c1.4835-0.00261,2.96722,0.00554,4.45083,0.00837    c0.08773,0.00022,0.14513,0.00109,0.14513,0.12209c-0.00337,5.32446-0.00054,10.64891-0.0062,15.97347    c-0.00087,0.90776-0.36049,1.67397-1.02169,2.29168c-0.61238,0.57205-1.34826,0.85046-2.18405,0.85351    c-1.51362,0.00565-3.02744,0.00348-4.54117,0.00457c-0.04446,0-0.08882,0-0.14046,0c0-2.252,0-4.49443,0-6.74969    c0.19047,0.04087,0.37887,0.0836,0.56803,0.12121c0.62423,0.12361,1.25336,0.21927,1.88966,0.2396    c0.54476,0.01718,1.0917,0.02522,1.63559-0.00239c0.67533-0.03424,1.33554-0.16329,1.94293-0.48334    c0.77665-0.40931,1.19519-1.05778,1.21052-1.93227c0.02207-1.26858,0.01348-2.53759,0.01859-3.80638    c0.00022-0.06686-0.00631-0.11306-0.09588-0.11284c-0.87362,0.00359-1.74735,0.00326-2.62086,0.00446    C15.70392,20.91058,15.68587,20.91428,15.65348,20.91787z" style="fill:#0152CC;"/><path d="M20.05387,26.24276c0.10045,0.07306,0.18873,0.14209,0.28146,0.20384    c0.55487,0.36897,1.1753,0.5652,1.82421,0.68359c0.8909,0.1622,1.78974,0.17166,2.6888,0.10795    c0.74621-0.05273,1.48166-0.18557,2.21667-0.36321c0-0.44725,0-0.89363,0-1.35109    c-0.02881,0.00978-0.05631,0.01609-0.08099,0.02816c-0.60662,0.29787-1.23857,0.51921-1.90922,0.61575    c-0.65772,0.09458-1.31315,0.11252-1.94444-0.14339c-0.72882-0.29559-1.12682-0.84959-1.23466-1.61929    c-0.05566-0.39561-0.04066-0.78948,0.07893-1.17302c0.24885-0.79654,0.82329-1.224,1.61451-1.38555    c0.74686-0.15252,1.48502-0.06055,2.20503,0.15252c0.39376,0.11654,0.77056,0.29113,1.15464,0.44029    c0.03729,0.01435,0.07295,0.03294,0.11741,0.05327c0.00326-0.03533,0.00674-0.05718,0.00674-0.07893    c0.00044-0.39539-0.00065-0.79089,0.0012-1.18617c0.00043-0.0649-0.01229-0.09784-0.08632-0.11524    c-1.11344-0.26048-2.23928-0.40855-3.38468-0.37463c-0.83003,0.02457-1.65005,0.11654-2.43637,0.40572    c-0.39811,0.14633-0.76741,0.34517-1.10909,0.6251c-0.00446-0.04099-0.01-0.06805-0.01-0.09501    c-0.00033-1.35935-0.00565-2.7186,0.0012-4.07784c0.00761-1.54514,1.03191-2.81524,2.53868-3.14682    c0.24037-0.05305,0.49225-0.07349,0.73892-0.07469c1.5022-0.00685,3.00462-0.00283,4.50704-0.00685    c0.11197-0.00043,0.13502,0.03501,0.13502,0.14024c-0.0025,5.27521-0.00185,10.55052-0.0026,15.82584    c-0.00011,0.93493-0.31158,1.74681-0.98832,2.40126c-0.53052,0.51302-1.16845,0.80937-1.9064,0.87873    c-0.14568,0.0137-0.29276,0.0187-0.43909,0.0187c-1.47981,0.00142-2.95961,0.00087-4.43942,0.00087    c-0.04414,0-0.08838,0-0.13883,0C20.05387,31.16747,20.05387,28.71381,20.05387,26.24276z" style="fill:#D22F2F;"/><path d="M28.93651,20.91069c-0.00207-0.04903-0.00554-0.08936-0.00554-0.12959    c-0.00033-1.05419-0.0025-2.1085,0.00022-3.1628c0.00435-1.55503,1.02538-2.83166,2.54204-3.16519    c0.24754-0.05436,0.50704-0.07436,0.76121-0.0749c1.48339-0.0037,2.96679,0.00315,4.45029,0.00652    c0.14578,0.00054,0.14621,0.00087,0.14621,0.15209c0.00011,5.27499-0.00685,10.55009,0.00446,15.82508    c0.00315,1.48698-0.94407,2.68402-2.17427,3.09703c-0.3269,0.10958-0.66283,0.16861-1.00636,0.16937    c-1.53242,0.00272-3.06496,0.00142-4.59738,0.00152c-0.03686,0-0.07371,0-0.12057,0    c-0.00228-0.05055-0.00587-0.09067-0.00587-0.131c-0.00033-2.08969,0.00065-4.17937-0.00261-6.26906    c-0.00011-0.10958,0.03044-0.1385,0.13894-0.13796c1.57004,0.00533,3.14008,0.00587,4.71012,0.00848    c0.40137,0.00065,0.79622-0.03468,1.16965-0.19579c0.46018-0.1984,0.80556-0.50889,0.95331-1.00277    c0.17796-0.5951-0.03446-1.19737-0.54519-1.56276c-0.3393-0.24276-0.72403-0.35712-1.13356-0.40083    c-0.02533-0.00261-0.05044-0.00598-0.07849-0.02685c0.10132-0.02566,0.20395-0.04642,0.30342-0.07773    c0.51661-0.16318,0.9183-0.4629,1.07191-1.00266c0.20743-0.72882-0.09893-1.44893-0.94667-1.75931    c-0.34712-0.12709-0.7087-0.16144-1.07518-0.16133c-1.47219,0.00043-2.94439,0.00033-4.41648,0.00043    C29.03555,20.91069,28.99098,20.91069,28.93651,20.91069z" style="fill:#25BA2F;"/><g><path d="M30.5109,26.06958c0-0.55563,0-1.10442,0-1.66016c0.03272-0.00326,0.06142-0.00859,0.09012-0.0087     c0.58738-0.00043,1.17465-0.00261,1.76192,0.00054c0.40311,0.00196,0.72371,0.23797,0.82361,0.59608     c0.15394,0.55183-0.21036,1.06398-0.79339,1.08007c-0.61314,0.01696-1.22716,0.00381-1.84063,0.00348     C30.54188,26.08088,30.53134,26.07523,30.5109,26.06958z" style="fill:#25BA2F;"/><path d="M30.5109,23.41621c0-0.51128,0-1.01038,0-1.51731c0.03207-0.00424,0.06055-0.0112,0.08925-0.0112     c0.54139-0.00043,1.0829-0.00391,1.6244,0.00207c0.37223,0.00424,0.64891,0.21188,0.7449,0.54085     c0.1447,0.49736-0.18623,0.97646-0.70283,0.98973c-0.55988,0.01446-1.12041,0.00522-1.68071,0.00576     C30.56417,23.4261,30.54243,23.42045,30.5109,23.41621z" style="fill:#25BA2F;"/></g></g></g></svg>